<svg version="1.1" id="Layer_1" xmlns="http://www.w3.org/2000/svg" x="0" y="0" viewBox="0 0 72 72" xml:space="preserve"><style>.st1{fill:#fff}</style><path d="M0 0h72v72H0V0z" fill="#12100e"/><path class="st1" d="M38.3 36c0 5.65-4.54 10.22-10.15 10.22S18 41.65 18 36s4.55-10.22 10.15-10.22S38.31 30.35 38.31 36M49.44 36c0 5.31-2.27 9.62-5.07 9.62s-5.08-4.3-5.08-9.62 2.27-9.62 5.08-9.62 5.07 4.3 5.07 9.62M54 36c0 4.76-.8 8.62-1.79 8.62s-1.78-3.86-1.78-8.62.8-8.62 1.78-8.62c1 0 1.79 3.86 1.79 8.62"/></svg>